<?xml version="1.0" encoding="utf-8"?>
<!-- Generator: Adobe Illustrator 21.0.0, SVG Export Plug-In . SVG Version: 6.00 Build 0)  -->
<svg version="1.1" id="Layer_1" xmlns="http://www.w3.org/2000/svg" xmlns:xlink="http://www.w3.org/1999/xlink" x="0px" y="0px"
	 viewBox="0 0 1095.6 1558" style="enable-background:new 0 0 1095.6 1558;" xml:space="preserve">
<style type="text/css">
	.st0{stroke:#000000;stroke-width:49;stroke-miterlimit:10;}
	.st1{fill:#FFFFFF;stroke:#000000;stroke-width:80;stroke-miterlimit:10;}
</style>
<title>location-marker-blue-outline</title>
<path id="svg_2" class="st0" d="M613.3,1488.2c-22.1,60.1-107.1,60.5-129.3,0.4c-35-95-77.5-182.4-124.7-266.1
	c-61.4-108.9-132.5-209.4-198.4-314.9c-22-35.2-40.9-72.5-62-109.1c-42.3-73.1-76.5-157.9-74.3-267.9c2.1-107.5,33.2-193.7,78-264.2
	c73.7-115.9,197.2-211,362.9-236C601,10,728,44.5,818,97.2c73.6,43,130.6,100.5,173.9,168.3c45.2,70.7,76.4,154.3,79,263.2
	c1.3,55.8-7.8,107.5-20.7,150.4c-13,43.4-34,79.7-52.6,118.5c-36.4,75.7-82.1,145-127.9,214.3C772.3,1159.6,679,1309.4,613.3,1488.2
	L613.3,1488.2z"/>
<circle class="st1" cx="547.8" cy="535.8" r="325"/>
</svg>
